<mxfile host="Electron" agent="Mozilla/5.0 (Windows NT 10.0; Win64; x64) AppleWebKit/537.36 (KHTML, like Gecko) draw.io/28.2.8 Chrome/140.0.7339.240 Electron/38.4.0 Safari/537.36" version="28.2.8">
  <diagram name="Page-1" id="etWCOE8ooh2XjRPNbJUY">
    <mxGraphModel dx="1383" dy="580" grid="1" gridSize="10" guides="1" tooltips="1" connect="1" arrows="1" fold="1" page="0" pageScale="1" pageWidth="850" pageHeight="1100" math="0" shadow="0">
      <root>
        <mxCell id="0" />
        <mxCell id="1" parent="0" />
        <mxCell id="6XTNw93Q3a56vy88NF3G-12" value="customer" style="shape=umlLifeline;perimeter=lifelinePerimeter;whiteSpace=wrap;html=1;container=1;dropTarget=0;collapsible=0;recursiveResize=0;outlineConnect=0;portConstraint=eastwest;newEdgeStyle={&quot;curved&quot;:0,&quot;rounded&quot;:0};" vertex="1" parent="1">
          <mxGeometry x="-40" y="160" width="100" height="300" as="geometry" />
        </mxCell>
        <mxCell id="6XTNw93Q3a56vy88NF3G-16" value="" style="html=1;points=[[0,0,0,0,5],[0,1,0,0,-5],[1,0,0,0,5],[1,1,0,0,-5]];perimeter=orthogonalPerimeter;outlineConnect=0;targetShapes=umlLifeline;portConstraint=eastwest;newEdgeStyle={&quot;curved&quot;:0,&quot;rounded&quot;:0};" vertex="1" parent="6XTNw93Q3a56vy88NF3G-12">
          <mxGeometry x="45" y="80" width="10" height="200" as="geometry" />
        </mxCell>
        <mxCell id="6XTNw93Q3a56vy88NF3G-14" value="website" style="shape=umlLifeline;perimeter=lifelinePerimeter;whiteSpace=wrap;html=1;container=1;dropTarget=0;collapsible=0;recursiveResize=0;outlineConnect=0;portConstraint=eastwest;newEdgeStyle={&quot;curved&quot;:0,&quot;rounded&quot;:0};" vertex="1" parent="1">
          <mxGeometry x="280" y="160" width="100" height="300" as="geometry" />
        </mxCell>
        <mxCell id="6XTNw93Q3a56vy88NF3G-18" value="" style="html=1;points=[[0,0,0,0,5],[0,1,0,0,-5],[1,0,0,0,5],[1,1,0,0,-5]];perimeter=orthogonalPerimeter;outlineConnect=0;targetShapes=umlLifeline;portConstraint=eastwest;newEdgeStyle={&quot;curved&quot;:0,&quot;rounded&quot;:0};" vertex="1" parent="6XTNw93Q3a56vy88NF3G-14">
          <mxGeometry x="45" y="80" width="10" height="200" as="geometry" />
        </mxCell>
        <mxCell id="6XTNw93Q3a56vy88NF3G-19" value="" style="html=1;points=[[0,0,0,0,5],[0,1,0,0,-5],[1,0,0,0,5],[1,1,0,0,-5]];perimeter=orthogonalPerimeter;outlineConnect=0;targetShapes=umlLifeline;portConstraint=eastwest;newEdgeStyle={&quot;curved&quot;:0,&quot;rounded&quot;:0};" vertex="1" parent="6XTNw93Q3a56vy88NF3G-14">
          <mxGeometry x="55" y="130" width="10" height="40" as="geometry" />
        </mxCell>
        <mxCell id="6XTNw93Q3a56vy88NF3G-20" value="self call" style="html=1;align=left;spacingLeft=2;endArrow=block;rounded=0;edgeStyle=orthogonalEdgeStyle;curved=0;rounded=0;" edge="1" parent="6XTNw93Q3a56vy88NF3G-14">
          <mxGeometry relative="1" as="geometry">
            <mxPoint x="55" y="109.99857142857135" as="sourcePoint" />
            <Array as="points">
              <mxPoint x="90" y="109.97" />
              <mxPoint x="90" y="145.97" />
            </Array>
            <mxPoint x="65" y="145.99857142857135" as="targetPoint" />
          </mxGeometry>
        </mxCell>
        <mxCell id="6XTNw93Q3a56vy88NF3G-15" value="payment" style="shape=umlLifeline;perimeter=lifelinePerimeter;whiteSpace=wrap;html=1;container=1;dropTarget=0;collapsible=0;recursiveResize=0;outlineConnect=0;portConstraint=eastwest;newEdgeStyle={&quot;curved&quot;:0,&quot;rounded&quot;:0};" vertex="1" parent="1">
          <mxGeometry x="560" y="160" width="100" height="300" as="geometry" />
        </mxCell>
        <mxCell id="6XTNw93Q3a56vy88NF3G-17" value="1. khách hàng tạo đơn hàng" style="html=1;verticalAlign=bottom;endArrow=block;curved=0;rounded=0;" edge="1" parent="1">
          <mxGeometry y="10" width="80" relative="1" as="geometry">
            <mxPoint x="15" y="260" as="sourcePoint" />
            <mxPoint x="325" y="260" as="targetPoint" />
            <mxPoint as="offset" />
          </mxGeometry>
        </mxCell>
        <mxCell id="6XTNw93Q3a56vy88NF3G-23" value="alt" style="shape=umlFrame;whiteSpace=wrap;html=1;pointerEvents=0;" vertex="1" parent="1">
          <mxGeometry x="-30" y="320" width="390" height="140" as="geometry" />
        </mxCell>
        <mxCell id="6XTNw93Q3a56vy88NF3G-24" value="" style="line;strokeWidth=1;fillColor=none;align=left;verticalAlign=middle;spacingTop=-1;spacingLeft=3;spacingRight=3;rotatable=0;labelPosition=right;points=[];portConstraint=eastwest;strokeColor=inherit;dashed=1;" vertex="1" parent="1">
          <mxGeometry x="-30" y="390" width="390" height="8" as="geometry" />
        </mxCell>
        <mxCell id="6XTNw93Q3a56vy88NF3G-25" value="2.1 thành công" style="html=1;verticalAlign=bottom;endArrow=open;dashed=1;endSize=8;curved=0;rounded=0;" edge="1" parent="1" target="6XTNw93Q3a56vy88NF3G-16">
          <mxGeometry x="-0.1803" relative="1" as="geometry">
            <mxPoint x="325" y="360" as="sourcePoint" />
            <mxPoint x="20" y="360" as="targetPoint" />
            <mxPoint as="offset" />
          </mxGeometry>
        </mxCell>
        <mxCell id="6XTNw93Q3a56vy88NF3G-27" value="2.2 thất bại" style="html=1;verticalAlign=bottom;endArrow=open;dashed=1;endSize=8;curved=0;rounded=0;" edge="1" parent="1" target="6XTNw93Q3a56vy88NF3G-16">
          <mxGeometry relative="1" as="geometry">
            <mxPoint x="325" y="430" as="sourcePoint" />
            <mxPoint x="20" y="430" as="targetPoint" />
          </mxGeometry>
        </mxCell>
        <mxCell id="6XTNw93Q3a56vy88NF3G-28" value="3. thanh toán" style="html=1;verticalAlign=bottom;endArrow=block;curved=0;rounded=0;" edge="1" parent="1">
          <mxGeometry x="0.2782" width="80" relative="1" as="geometry">
            <mxPoint x="15" y="370" as="sourcePoint" />
            <mxPoint x="610" y="370" as="targetPoint" />
            <mxPoint as="offset" />
          </mxGeometry>
        </mxCell>
        <mxCell id="6XTNw93Q3a56vy88NF3G-29" value="4.trả về kết quả" style="html=1;verticalAlign=bottom;endArrow=open;dashed=1;endSize=8;curved=0;rounded=0;" edge="1" parent="1">
          <mxGeometry x="-0.2963" relative="1" as="geometry">
            <mxPoint x="609" y="390" as="sourcePoint" />
            <mxPoint x="15" y="389.9999999999999" as="targetPoint" />
            <mxPoint as="offset" />
          </mxGeometry>
        </mxCell>
      </root>
    </mxGraphModel>
  </diagram>
</mxfile>
